<?xml version="1.0" encoding="UTF-8"?>
<svg id="Camada_2" data-name="Camada 2" xmlns="http://www.w3.org/2000/svg" viewBox="0 0 288.39 177.52">
  <defs>
    <style>
      .cls-1 {
        fill: #f7941d;
      }

      .cls-2 {
        fill: #fff;
      }
    </style>
  </defs>
  <g id="Camada_1-2" data-name="Camada 1">
    <g>
      <g>
        <path class="cls-2" d="M89.78,58.3c-1.12-2.04-2.53-3.64-4.23-4.78-1.71-1.14-3.45-1.77-5.23-1.9v-.45c1.68-.45,3.2-1.19,4.55-2.22,1.36-1.02,2.43-2.36,3.22-4.02.79-1.65,1.18-3.66,1.18-6.01,0-2.79-.61-5.28-1.84-7.49-1.23-2.2-3.06-3.94-5.49-5.22-2.43-1.28-5.48-1.92-9.14-1.92h-19.06v38.29l5.34,3.08v-11.48h14.89c2.48,0,4.64.5,6.48,1.5,1.85,1.01,3.28,2.37,4.31,4.08,1.03,1.72,1.54,3.65,1.54,5.78,0,2.88-1.03,5.27-3.08,7.16-1.67,1.54-4.07,2.45-7.2,2.74l6.22,3.59c.53-.19,1.04-.4,1.52-.64,2.6-1.27,4.53-3.02,5.79-5.24,1.27-2.22,1.9-4.74,1.9-7.58s-.56-5.23-1.67-7.27ZM73.18,49.59h-14.1v-20.52h13.61c3.79,0,6.64.92,8.55,2.78,1.92,1.85,2.88,4.25,2.88,7.18,0,2.03-.45,3.84-1.35,5.43-.91,1.59-2.18,2.85-3.84,3.76-1.65.92-3.57,1.37-5.75,1.37Z"/>
        <path class="cls-2" d="M102.59,80.31V24.29h5.38v51.25h26.62v4.77h-32Z"/>
        <path class="cls-2" d="M139.63,80.31l20.53-56.02h6.32l20.72,56.02h-5.64l-13.31-36.62c-.75-2.03-1.57-4.4-2.46-7.12-.89-2.72-1.91-6-3.06-9.83h1.13c-1.15,3.86-2.18,7.17-3.08,9.93-.9,2.76-1.69,5.1-2.37,7.03l-13.08,36.62h-5.68ZM149.18,63.66v-4.74h28.46v4.74h-28.46Z"/>
        <path class="cls-2" d="M215.14,81.06c-4.71,0-8.9-1.17-12.56-3.52-3.66-2.34-6.53-5.67-8.61-9.98-2.08-4.31-3.12-9.39-3.12-15.23s1.04-10.95,3.12-15.26c2.08-4.31,4.95-7.64,8.61-10,3.66-2.36,7.85-3.53,12.56-3.53,2.98,0,5.73.46,8.25,1.39,2.52.93,4.74,2.22,6.67,3.89,1.93,1.67,3.52,3.62,4.76,5.85,1.24,2.23,2.09,4.64,2.54,7.22h-5.34c-.4-1.93-1.09-3.7-2.07-5.32-.98-1.62-2.21-3.03-3.68-4.23-1.48-1.2-3.15-2.14-5.02-2.8-1.87-.66-3.9-1-6.11-1-3.51,0-6.71.92-9.61,2.74-2.9,1.83-5.2,4.51-6.92,8.05-1.72,3.53-2.58,7.87-2.58,13.01s.86,9.47,2.59,13.01,4.04,6.2,6.94,8.01c2.9,1.8,6.08,2.71,9.57,2.71,2.21,0,4.24-.33,6.11-1,1.87-.66,3.54-1.6,5.02-2.8,1.48-1.2,2.71-2.62,3.68-4.25.98-1.63,1.67-3.4,2.07-5.3h5.34c-.43,2.56-1.26,4.94-2.5,7.16-1.24,2.22-2.83,4.17-4.76,5.85-1.93,1.68-4.15,2.99-6.67,3.93-2.52.94-5.28,1.41-8.29,1.41Z"/>
        <path class="cls-2" d="M248.24,80.31V24.29h5.34v19.44l-.08,12.63.08,2.74v21.21h-5.34ZM252.03,62.9l-.19-5.68c1.35-1.7,2.68-3.34,3.99-4.91,1.3-1.57,2.63-3.11,3.97-4.64,1.34-1.53,2.73-3.06,4.15-4.59l17.41-18.8h7.03l-23.65,25.38-.38.11-12.33,13.12ZM282.04,80.31l-20.87-29.36,3.42-4.02,23.8,33.39h-6.35Z"/>
        <path class="cls-2" d="M122.53,139.8c-1.88-3.19-4.36-5.68-7.45-7.48-3.09-1.79-6.43-2.75-10.02-2.87v-.97c3.27-.69,6.16-1.91,8.69-3.66,2.52-1.76,4.5-3.98,5.93-6.66,1.43-2.69,2.15-5.75,2.15-9.18,0-4.56-1.14-8.54-3.42-11.95-2.28-3.42-5.7-6.09-10.26-8.03-3.85-1.63-8.46-2.57-13.83-2.82,5.9,4.7,6.29,13.52,1.17,18.77.45.26.87.56,1.27.88,2.18,1.78,3.27,4.18,3.27,7.21,0,2.18-.53,4.03-1.6,5.54-1.07,1.51-2.54,2.67-4.42,3.48s-4.01,1.21-6.39,1.21h-12.41v-6.06l-21.37,12.33v46.77h40.2c6.7,0,12.37-1.09,17.01-3.27,4.64-2.18,8.19-5.16,10.63-8.96,2.44-3.79,3.66-8.11,3.66-12.96,0-4.36-.94-8.13-2.81-11.32ZM99.64,156.3c-2.28,1.84-5.82,2.76-10.63,2.76h-13.8v-21.92h14.23c2.82,0,5.25.47,7.29,1.42,2.04.95,3.61,2.29,4.7,4.03,1.09,1.73,1.63,3.77,1.63,6.11,0,3.23-1.14,5.76-3.42,7.6Z"/>
        <path class="cls-2" d="M168.49,177.52c-8.11,0-15.41-1.8-21.89-5.39-6.48-3.59-11.62-8.84-15.41-15.74-3.79-6.9-5.69-15.28-5.69-25.13s1.9-18.35,5.69-25.25c3.79-6.9,8.93-12.15,15.41-15.74,6.48-3.59,13.77-5.39,21.89-5.39s15.35,1.8,21.83,5.39c6.48,3.59,11.6,8.84,15.38,15.74,3.77,6.9,5.66,15.32,5.66,25.25s-1.89,18.29-5.66,25.19c-3.77,6.9-8.9,12.14-15.38,15.71s-13.75,5.36-21.83,5.36ZM168.49,158.75c4.36,0,8.11-1.05,11.26-3.15,3.15-2.1,5.57-5.2,7.27-9.29,1.7-4.1,2.54-9.11,2.54-15.05s-.85-11.02-2.54-15.14-4.12-7.23-7.27-9.32c-3.15-2.1-6.9-3.15-11.26-3.15s-8.17,1.06-11.32,3.18-5.57,5.23-7.27,9.32c-1.7,4.1-2.54,9.13-2.54,15.11s.85,10.94,2.54,15.02c1.7,4.08,4.12,7.17,7.27,9.29s6.92,3.18,11.32,3.18Z"/>
        <path class="cls-2" d="M233.32,176.31v-32.7l-33.54-57.52h25.07l14.17,27.67c1.37,2.66,2.6,5.35,3.69,8.05,1.09,2.7,2.2,5.85,3.33,9.45h-3.81c1.05-3.63,2.09-6.8,3.12-9.51,1.03-2.7,2.21-5.37,3.54-7.99l13.5-27.67h24.95l-32.76,57.52v32.7h-21.25Z"/>
      </g>
      <g>
        <path class="cls-1" d="M98.78,12.53V.17h7.69v1.63h-5.8v3.98h5.25v1.62h-5.25v5.15h-1.89Z"/>
        <path class="cls-1" d="M134.83.17v12.37h-1.89V.17h1.89Z"/>
        <path class="cls-1" d="M161.71,12.53V.17h1.89v10.74h5.6v1.63h-7.5Z"/>
        <path class="cls-1" d="M195.46,12.53V.17h2.79l2.7,7.1c.08.21.16.48.26.8.1.32.2.67.3,1.05s.2.75.3,1.11.18.69.25.99h-.4c.07-.28.15-.6.25-.96.09-.36.19-.73.3-1.11s.21-.73.31-1.06.19-.6.27-.81l2.66-7.1h2.81v12.37h-1.88v-6.66c0-.25,0-.56,0-.91s.01-.73.02-1.12c0-.4.02-.8.02-1.2,0-.4.02-.79.02-1.16h.14c-.11.4-.23.82-.36,1.25-.13.43-.26.84-.38,1.24-.12.4-.24.76-.36,1.09-.11.33-.21.6-.29.82l-2.53,6.66h-1.62l-2.56-6.66c-.08-.21-.18-.48-.29-.8-.11-.32-.23-.68-.35-1.08-.13-.4-.26-.81-.39-1.24-.13-.43-.27-.86-.4-1.28h.17c.01.34.02.7.03,1.1,0,.4.02.8.02,1.2,0,.4.02.79.03,1.15,0,.36.01.68.01.95v6.66h-1.84Z"/>
        <path class="cls-1" d="M239.26,12.74c-.92,0-1.73-.15-2.41-.44s-1.21-.71-1.6-1.26c-.38-.54-.6-1.19-.63-1.95h1.9c.04.45.18.82.44,1.11.25.29.58.51.98.66s.84.22,1.31.22c.53,0,.99-.08,1.4-.24.41-.16.73-.4.97-.7.24-.3.36-.65.36-1.05,0-.36-.1-.65-.31-.88-.21-.23-.49-.42-.84-.57-.35-.15-.75-.29-1.2-.4l-1.44-.4c-1.01-.27-1.8-.67-2.37-1.2-.57-.53-.85-1.22-.85-2.07,0-.71.19-1.34.58-1.87.38-.53.91-.95,1.57-1.25.66-.3,1.41-.44,2.24-.44s1.59.15,2.24.44c.65.3,1.15.7,1.52,1.22.37.51.56,1.1.58,1.76h-1.84c-.06-.56-.32-1-.78-1.31-.46-.31-1.04-.46-1.75-.46-.5,0-.93.08-1.3.23-.37.15-.65.37-.86.64-.2.27-.3.58-.3.93,0,.39.12.71.36.95.24.24.53.43.88.57.35.14.68.25.99.34l1.2.32c.39.1.8.23,1.22.4.42.17.8.39,1.16.66.35.27.64.6.86,1,.22.4.33.87.33,1.43,0,.7-.18,1.32-.54,1.87s-.88.98-1.56,1.29c-.68.31-1.51.47-2.48.47Z"/>
      </g>
      <path class="cls-1" d="M89.33,87.4L14.67,44.29c-6.52-3.76-14.67.94-14.67,8.47v86.22c0,7.53,8.15,12.23,14.67,8.47l74.67-43.11c6.52-3.76,6.52-13.17,0-16.94Z"/>
    </g>
  </g>
</svg>