<?xml version="1.0" encoding="UTF-8"?>
<svg id="Camada_2" data-name="Camada 2" xmlns="http://www.w3.org/2000/svg" viewBox="0 0 101.36 91.62">
  <defs>
    <style>
      .cls-1 {
        fill: #f7941d;
      }

      .cls-2 {
        fill: #fff;
      }
    </style>
  </defs>
  <g id="Camada_1-2" data-name="Camada 1">
    <g>
      <path class="cls-2" d="M98.5,54.54c-1.9-3.23-4.42-5.77-7.56-7.59s-6.53-2.8-10.18-2.92v-.99c3.32-.69,6.26-1.93,8.83-3.71,2.56-1.79,4.57-4.04,6.02-6.77,1.46-2.72,2.18-5.83,2.18-9.31,0-4.63-1.15-8.68-3.47-12.15-2.32-3.46-5.79-6.18-10.42-8.14-4.63-1.97-10.35-2.96-17.16-2.96H28.75v13.75l21.7,12.53v-8.94h12.97c3.73,0,6.71.91,8.92,2.71,2.21,1.8,3.32,4.24,3.32,7.32,0,2.21-.54,4.09-1.63,5.62-1.09,1.54-2.58,2.72-4.49,3.54-.26.11-.52.22-.79.31l4.99,2.88c4.54,2.62,4.54,9.18,0,11.81l-2.36,1.36c.32.12.63.25.93.39,2.07.97,3.66,2.33,4.76,4.09,1.11,1.76,1.66,3.84,1.66,6.21,0,3.28-1.15,5.85-3.47,7.72-2.32,1.86-5.91,2.8-10.79,2.8h-14.02v-9.13l-21.7,12.53v14.12h40.82c6.81,0,12.57-1.11,17.28-3.32,4.71-2.22,8.31-5.25,10.79-9.1,2.48-3.85,3.72-8.24,3.72-13.16,0-4.43-.95-8.26-2.86-11.5Z"/>
      <path class="cls-1" d="M71.42,41.11L6.81,3.81c-3.02-1.75-6.81.44-6.81,3.93v74.61c0,3.49,3.78,5.68,6.81,3.93l64.61-37.3c3.02-1.75,3.02-6.11,0-7.86Z"/>
    </g>
  </g>
</svg>